# xmcd
#
# Track frame offsets: 
#        150
#        17217
#        31791
#        44126
#        62202
#        77440
#        89771
#        106587
#        120276
#        139386
#        154392
#        172608
#
# Disc length: 2689 seconds
#
# Revision: 0
# Processed by: cddbd v1.5.2PL0 Copyright (c) Steve Scherf et al.
# Submitted via: ExactAudioCopy v0.99pb3
#
DISCID=940a7f0c
DTITLE=Emetrex - Metacomet
DYEAR=2001
DGENRE=Seriously Groovy
TTITLE0=Light As Ashes
TTITLE1=Saturn With The Rings
TTITLE2=King Of Animals
TTITLE3=At This Point
TTITLE4=Califone Is Dead
TTITLE5=So Bright
TTITLE6=Left 63
TTITLE7=Hard To Be
TTITLE8=Let It
TTITLE9=Rex (Wasting My Time)
TTITLE10=Staring At The Stone
TTITLE11=Pest
EXTD=
EXTT0=
EXTT1=
EXTT2=
EXTT3=
EXTT4=
EXTT5=
EXTT6=
EXTT7=
EXTT8=
EXTT9=
EXTT10=
EXTT11=
PLAYORDER=
